<svg width="402" height="100" viewBox="0 0 462 140" fill="none" xmlns="http://www.w3.org/2000/svg">
<path d="M21.1423 97.9529L0.5 43.1214H14.4188L27.6298 80.0295L33.9995 64.4644C35.4936 60.691 36.6731 57.0356 37.5381 53.4981C38.4818 49.882 39.0716 46.4231 39.3075 43.1214H51.8108C51.4176 46.5803 50.5526 50.275 49.2158 54.2056C47.9576 58.0576 46.5028 61.9881 44.8514 65.9973L31.6403 97.9529H21.1423Z" fill="white"/>
<path d="M60.0677 97.9529V87.4583H73.5147V53.616H60.7754V43.1214H86.9616V87.4583H99.229V97.9529H60.0677ZM79.6484 34.0417C77.2893 34.0417 75.284 33.2556 73.6326 31.6834C72.0599 30.1112 71.2735 28.2245 71.2735 26.0234C71.2735 23.7436 72.0599 21.857 73.6326 20.3633C75.2054 18.7911 77.2106 18.005 79.6484 18.005C81.8502 18.005 83.7768 18.7911 85.4282 20.3633C87.1582 21.9356 88.0232 23.8222 88.0232 26.0234C88.0232 28.2245 87.1582 30.1112 85.4282 31.6834C83.7768 33.2556 81.8502 34.0417 79.6484 34.0417Z" fill="white"/>
<path d="M135.206 99.25C129.937 99.25 125.219 98.1494 121.051 95.9483C116.962 93.7472 113.738 90.5241 111.379 86.2791C109.019 82.0341 107.84 76.9243 107.84 70.9498C107.84 64.8182 108.98 59.5905 111.261 55.2669C113.62 50.9432 116.726 47.6415 120.579 45.3618C124.511 43.0035 128.875 41.8243 133.672 41.8243C137.919 41.8243 141.811 42.8069 145.35 44.7722C148.967 46.7375 151.837 49.7247 153.961 53.7339C156.162 57.6645 157.263 62.5777 157.263 68.4736C157.263 69.2597 157.224 70.203 157.145 71.3036C157.145 72.4042 157.106 73.3475 157.027 74.1336H120.697C120.854 77.5925 121.68 80.4225 123.174 82.6237C124.668 84.7462 126.516 86.3184 128.718 87.3404C130.92 88.3623 133.279 88.8733 135.795 88.8733C138.233 88.8733 140.553 88.4802 142.755 87.6941C144.957 86.908 147.001 85.5716 148.888 83.6849L155.73 90.2883C153.056 93.4328 149.989 95.7125 146.529 97.1275C143.069 98.5425 139.295 99.25 135.206 99.25ZM120.933 64.1107H144.288C144.288 60.2587 143.305 57.3108 141.339 55.2669C139.373 53.223 136.621 52.201 133.082 52.201C130.016 52.201 127.342 53.1836 125.061 55.1489C122.781 57.0356 121.405 60.0229 120.933 64.1107Z" fill="white"/>
<path d="M167.525 97.9529L157.381 43.1214H168.941L175.193 80.6191L182.978 49.2531H189.937L199.138 80.3832C200.081 73.4654 200.789 67.9233 201.261 63.7569C201.733 59.5119 202.047 56.0923 202.205 53.4981C202.362 50.8253 202.44 48.4277 202.44 46.3051V43.1214H213.764C213.292 48.9386 212.624 54.9917 211.759 61.2806C210.894 67.5696 209.911 73.8585 208.81 80.1474C207.788 86.3577 206.726 92.2929 205.625 97.9529H193.948L186.28 68.2378L179.203 97.9529H167.525Z" fill="white"/>
<path d="M241.366 99.25C236.097 99.25 231.379 98.1494 227.211 95.9483C223.122 93.7472 219.898 90.5241 217.539 86.2791C215.18 82.0341 214 76.9243 214 70.9498C214 64.8182 215.14 59.5905 217.421 55.2669C219.78 50.9432 222.886 47.6415 226.739 45.3618C230.671 43.0035 235.036 41.8243 239.832 41.8243C244.079 41.8243 247.971 42.8069 251.51 44.7722C255.127 46.7375 257.998 49.7247 260.121 53.7339C262.323 57.6645 263.424 62.5777 263.424 68.4736C263.424 69.2597 263.384 70.203 263.306 71.3036C263.306 72.4042 263.266 73.3475 263.188 74.1336H226.857C227.015 77.5925 227.84 80.4225 229.334 82.6237C230.828 84.7462 232.676 86.3184 234.878 87.3404C237.08 88.3623 239.439 88.8733 241.956 88.8733C244.393 88.8733 246.713 88.4802 248.915 87.6941C251.117 86.908 253.161 85.5716 255.049 83.6849L261.89 90.2883C259.216 93.4328 256.15 95.7125 252.69 97.1275C249.23 98.5425 245.455 99.25 241.366 99.25ZM227.093 64.1107H250.448C250.448 60.2587 249.465 57.3108 247.5 55.2669C245.534 53.223 242.781 52.201 239.243 52.201C236.176 52.201 233.502 53.1836 231.222 55.1489C228.941 57.0356 227.565 60.0229 227.093 64.1107Z" fill="white"/>
<path d="M272.978 43.1214H286.779L286.661 51.9652C288.155 48.8207 290.357 46.3444 293.266 44.5364C296.176 42.7283 299.243 41.8243 302.467 41.8243C308.601 41.8243 313.673 43.9075 317.683 48.0739L312.021 59.276L311.668 60.2194L310.606 59.7477C310.37 59.1188 310.134 58.4899 309.898 57.861C309.662 57.1535 309.072 56.3674 308.129 55.5027C307.028 54.638 305.848 53.9698 304.59 53.4981C303.411 53.0264 302.113 52.7906 300.698 52.7906C296.923 52.7906 293.62 54.0877 290.789 56.6819C287.958 59.276 286.543 63.4425 286.543 69.1811V97.9529H272.978V43.1214Z" fill="white"/>
<path d="M401.5 43.5716H395.718V49.3517H401.5V43.5716Z" fill="white"/>
<path d="M395.715 49.3517H392.834V52.2322H395.715V49.3517Z" fill="white"/>
<path d="M395.719 32.0112V23.3506H398.62V14.69H389.956V23.3506H392.838V32.0112H395.719Z" fill="white"/>
<path d="M392.838 52.2332H389.956V55.1327H392.838V52.2332Z" fill="white"/>
<path d="M392.838 32.0112L389.956 32.0115V34.911H392.838V32.0112Z" fill="white"/>
<path d="M389.952 55.1317H387.052V60.8928H389.952V55.1317Z" fill="white"/>
<path d="M389.952 34.9117H387.052V37.7922H389.952V34.9117Z" fill="white"/>
<path d="M387.056 37.7916H384.174V40.6911H387.056V37.7916Z" fill="white"/>
<path d="M384.17 40.6918H381.27V60.8935H384.17V40.6918Z" fill="white"/>
<path d="M384.174 32.0119V8.9106H387.056V0.25H378.392V8.9106H381.274V32.0119H384.174ZM381.274 3.1495H384.174V6.03005H381.274V3.1495Z" fill="white"/>
<path d="M381.274 32.0119L378.392 32.0115V34.911H381.274V32.0119Z" fill="white"/>
<path d="M378.39 34.9117H375.508V60.8935H378.39V34.9117Z" fill="white"/>
<path d="M366.828 29.1306H369.729V60.8925H372.61V29.1306H375.511V20.47H366.828V29.1306Z" fill="white"/>
<path d="M366.826 34.9117H363.944V60.8935H366.826V34.9117Z" fill="white"/>
<path d="M363.948 32.0115H361.067V34.911H363.948V32.0115Z" fill="white"/>
<path d="M361.063 46.4532H358.162V60.8938H361.063V46.4532Z" fill="white"/>
<path d="M361.067 17.5895H363.948V8.90993H355.285V17.5895H358.166V32.0112L361.067 32.0115V17.5895Z" fill="white"/>
<path d="M358.166 43.5716H355.285V46.4522H358.166V43.5716Z" fill="white"/>
<path d="M355.282 55.1317H352.4V60.8928H355.282V55.1317Z" fill="white"/>
<path d="M355.282 40.6918H352.4V43.5723H355.282V40.6918Z" fill="white"/>
<path d="M355.282 37.7923V29.1317H346.618V37.7923H349.5V40.6918L352.4 40.6918V37.7923H355.282ZM349.5 34.9117V32.0122H352.4V34.9117H349.5Z" fill="white"/>
<path d="M352.403 52.2332H349.503V55.1327H352.403V52.2332Z" fill="white"/>
<path d="M349.5 49.3517H346.618V52.2322H349.5V49.3517Z" fill="white"/>
<path d="M346.618 43.5716H340.836V49.3517L346.618 49.3517V43.5716Z" fill="white"/>
</svg>
