<?xml version="1.0" encoding="UTF-8" standalone="no"?>
<!-- Created with Inkscape (http://www.inkscape.org/) -->

<svg
   viewBox="0 0 192 192"
   version="1.1"
   id="svg1"
   width="192"
   height="192"
   xmlns="http://www.w3.org/2000/svg"
   xmlns:svg="http://www.w3.org/2000/svg">
  <defs
     id="defs1" />
  <path
     d="m 171.57205,126.24847 h -14.81008 v 14.78903 h 14.81008 z"
     fill="#00f0e2"
     id="path8"
     style="stroke-width:2.76979" />
  <path
     d="m 156.75643,141.0375 h -7.3815 v 7.37014 h 7.3815 z"
     fill="#00f0e2"
     id="path9"
     style="stroke-width:2.76979" />
  <path
     d="m 156.76474,96.669856 v -22.15889 h 7.43135 v -22.15889 h -22.19157 v 22.15889 h 7.38149 v 22.15889 z"
     fill="#00f0e2"
     id="path10"
     style="stroke-width:2.76979" />
  <path
     d="m 149.38601,148.41013 h -7.38149 v 7.41861 h 7.38149 z"
     fill="#00f0e2"
     id="path11"
     style="stroke-width:2.76979" />
  <path
     d="m 149.38601,96.669856 -7.38149,0.0011 v 7.418614 h 7.38149 z"
     fill="#00f0e2"
     id="path12"
     style="stroke-width:2.76979" />
  <path
     d="m 141.99621,155.82625 h -7.43135 v 14.74028 h 7.43135 z"
     fill="#00f0e2"
     id="path13"
     style="stroke-width:2.76979" />
  <path
     d="m 141.99621,104.09124 h -7.43135 v 7.37014 h 7.43135 z"
     fill="#00f0e2"
     id="path14"
     style="stroke-width:2.76979" />
  <path
     d="m 134.57593,111.45972 h -7.37872 v 7.41861 h 7.37872 z"
     fill="#00f0e2"
     id="path15"
     style="stroke-width:2.76979" />
  <path
     d="m 127.18613,118.87999 h -7.42858 v 51.6882 h 7.42858 z"
     fill="#00f0e2"
     id="path16"
     style="stroke-width:2.76979" />
  <path
     d="M 127.19721,96.671795 V 37.564849 h 7.37872 V 15.405821 h -22.1888 v 22.159028 h 7.37873 v 59.106946 z m -7.43135,-73.847308 h 7.43135 v 7.370167 h -7.43135 z"
     fill="#00f0e2"
     id="path17"
     style="stroke-width:2.76979" />
  <path
     d="m 119.76586,96.671795 -7.37873,-8.31e-4 v 7.418616 h 7.37873 z"
     fill="#00f0e2"
     id="path18"
     style="stroke-width:2.76979" />
  <path
     d="m 112.37882,104.09124 h -7.37872 v 66.47695 h 7.37872 z"
     fill="#00f0e2"
     id="path19"
     style="stroke-width:2.76979" />
  <path
     d="m 82.766973,89.299717 h 7.431352 V 170.5657 H 97.57705 V 89.299717 h 7.42859 V 67.140827 H 82.766973 Z"
     fill="#00f0e2"
     id="path20"
     style="stroke-width:2.76979" />
  <path
     d="m 82.761433,104.09124 h -7.381496 v 66.47695 h 7.381496 z"
     fill="#00f0e2"
     id="path21"
     style="stroke-width:2.76979" />
  <path
     d="m 75.391017,96.670964 h -7.378726 v 7.418616 h 7.378726 z"
     fill="#00f0e2"
     id="path22"
     style="stroke-width:2.76979" />
  <path
     d="m 68.001211,133.62138 h -7.428582 v 36.94792 h 7.428582 z"
     fill="#00f0e2"
     id="path23"
     style="stroke-width:2.76979" />
  <path
     d="m 68.012291,59.770687 h 7.378726 V 37.563104 H 53.202213 v 22.207583 h 7.378726 v 36.899169 l 7.431352,0.0011 z"
     fill="#00f0e2"
     id="path24"
     style="stroke-width:2.76979" />
  <path
     d="m 60.580939,126.24847 h -7.378726 v 7.37014 h 7.378726 z"
     fill="#00f0e2"
     id="path25"
     style="stroke-width:2.76979" />
  <path
     d="m 53.193903,155.82625 h -7.378725 v 14.74028 h 7.378725 z"
     fill="#00f0e2"
     id="path26"
     style="stroke-width:2.76979" />
  <path
     d="m 53.193903,118.87999 h -7.378725 v 7.37042 h 7.378725 z"
     fill="#00f0e2"
     id="path27"
     style="stroke-width:2.76979" />
  <path
     d="M 53.193903,111.46138 V 89.302487 H 31.0051 v 22.158893 h 7.381495 v 7.41861 h 7.428583 v -7.41861 z m -14.807308,-7.37014 v -7.418614 h 7.428583 v 7.418614 z"
     fill="#00f0e2"
     id="path28"
     style="stroke-width:2.76979" />
  <path
     d="m 45.820717,148.41013 h -7.428582 v 7.41861 h 7.428582 z"
     fill="#00f0e2"
     id="path29"
     style="stroke-width:2.76979" />
  <path
     d="M 38.386595,141.0375 H 31.0051 v 7.37014 h 7.381495 z"
     fill="#00f0e2"
     id="path30"
     style="stroke-width:2.76979" />
  <path
     d="M 31.0051,126.24847 H 16.195022 V 141.0375 H 31.0051 Z"
     fill="#00f0e2"
     id="path31"
     style="stroke-width:2.76979" />
</svg>
